<svg width="32" height="32" viewBox="0 0 32 32" fill="none" xmlns="http://www.w3.org/2000/svg">
<g clip-path="url(#clip0_1_2)">
<rect width="32" height="32" fill="white"/>
<path d="M19.7334 14.2133L21.4853 11.1788C22.4448 11.8139 23.1695 12.5977 23.6596 13.5301C24.1535 14.4558 24.367 15.4767 24.3 16.5927C24.2369 17.702 23.8558 18.8621 23.1566 20.0732C22.6097 21.0204 21.9571 21.7758 21.1987 22.3393C20.4336 22.8989 19.5889 23.2682 18.6646 23.4472C17.7442 23.6195 16.7676 23.5924 15.7346 23.3659C14.7017 23.1394 13.6439 22.7136 12.5614 22.0886L11.5364 21.4968C10.4539 20.8718 9.55823 20.1653 8.8495 19.3772C8.13791 18.5785 7.62857 17.7341 7.32147 16.8441C7.01828 15.9474 6.91772 15.0278 7.01979 14.0854C7.12186 13.143 7.44047 12.2083 7.97563 11.2814C8.68656 10.05 9.50945 9.1404 10.4443 8.55249C11.383 7.9578 12.3796 7.65361 13.4339 7.63989C14.4922 7.61941 15.5493 7.85087 16.6054 8.33427L14.8476 11.3789C14.2326 11.069 13.6602 10.8964 13.1303 10.861C12.5937 10.8218 12.1013 10.948 11.6533 11.2397C11.2024 11.5206 10.7817 11.9994 10.391 12.676C10.0981 13.1834 9.93692 13.6812 9.90761 14.1695C9.87831 14.6578 9.98226 15.1418 10.2195 15.6215C10.4567 16.1013 10.8325 16.5754 11.3469 17.0438C11.8585 17.5015 12.5066 17.9569 13.2915 18.41L14.3368 19.0135C15.1013 19.455 15.8077 19.7861 16.456 20.007C17.0975 20.224 17.6862 20.3294 18.2221 20.3231C18.7552 20.306 19.2325 20.1667 19.6543 19.905C20.0731 19.6326 20.4388 19.2258 20.7513 18.6845C21.1185 18.0486 21.3197 17.4656 21.3551 16.9357C21.3904 16.4058 21.2709 15.9174 20.9967 15.4704C20.7265 15.0166 20.3053 14.5976 19.7334 14.2133Z" fill="#911E42"/>
</g>
<defs>
<clipPath id="clip0_1_2">
<rect width="32" height="32" fill="white"/>
</clipPath>
</defs>
</svg>
